<svg width="40" height="55" viewBox="0 0 40 55" fill="none" xmlns="http://www.w3.org/2000/svg">
<g clip-path="url(#clip0_1304_1721)">
<g filter="url(#filter0_bd_1304_1721)">
<path d="M0 0H40V55L20 45L0 55V0Z" fill="#373C50" fill-opacity="0.7" shape-rendering="crispEdges"/>
</g>
<path d="M25.3426 18H14.6198C13.9167 18.0101 13.2462 18.3039 12.7552 18.8172C12.2641 19.3304 11.9926 20.0211 12.0002 20.7381V36.3816C11.9983 36.694 12.0862 37.0001 12.2531 37.2622C12.4199 37.5242 12.6584 37.7306 12.9391 37.856C13.2056 37.9843 13.5037 38.0283 13.7949 37.9822C14.0861 37.9361 14.3571 37.8021 14.5729 37.5975L19.5963 33.0595C19.711 32.9663 19.8533 32.9155 20 32.9155C20.1467 32.9155 20.289 32.9663 20.4037 33.0595L25.4271 37.5975C25.6442 37.7999 25.9151 37.9324 26.2057 37.9784C26.4964 38.0243 26.7939 37.9818 27.0609 37.856C27.3416 37.7306 27.5801 37.5242 27.7469 37.2622C27.9138 37.0001 28.0017 36.694 27.9999 36.3816V20.7381C28.0036 20.3799 27.9376 20.0245 27.8057 19.6924C27.6739 19.3604 27.4787 19.0583 27.2316 18.8037C26.9845 18.549 26.6903 18.3469 26.366 18.209C26.0418 18.071 25.694 18 25.3426 18ZM27.0233 36.3816C27.0273 36.5077 26.9946 36.6322 26.9295 36.7395C26.8643 36.8468 26.7696 36.9321 26.6572 36.9847C26.5548 37.034 26.4403 37.0511 26.3284 37.0341C26.2164 37.0171 26.1119 36.9666 26.0281 36.889L21.0047 32.3606C20.7184 32.1143 20.3558 31.9791 19.9812 31.9791C19.6066 31.9791 19.2441 32.1143 18.9578 32.3606L13.9344 36.889C13.8505 36.9666 13.746 37.0171 13.6341 37.0341C13.5221 37.0511 13.4077 37.034 13.3053 36.9847C13.1928 36.9321 13.0981 36.8468 13.033 36.7395C12.9679 36.6322 12.9352 36.5077 12.9391 36.3816V20.7381C12.9315 20.275 13.1041 19.8278 13.4191 19.4941C13.734 19.1604 14.1657 18.9674 14.6198 18.9574H25.3426C25.7967 18.9674 26.2284 19.1604 26.5434 19.4941C26.8583 19.8278 27.0309 20.275 27.0233 20.7381V36.3816Z" fill="#42CE8F"/>
</g>
<defs>
<filter id="filter0_bd_1304_1721" x="-5" y="-5" width="50" height="70" filterUnits="userSpaceOnUse" color-interpolation-filters="sRGB">
<feFlood flood-opacity="0" result="BackgroundImageFix"/>
<feGaussianBlur in="BackgroundImageFix" stdDeviation="2.5"/>
<feComposite in2="SourceAlpha" operator="in" result="effect1_backgroundBlur_1304_1721"/>
<feColorMatrix in="SourceAlpha" type="matrix" values="0 0 0 0 0 0 0 0 0 0 0 0 0 0 0 0 0 0 127 0" result="hardAlpha"/>
<feOffset dy="5"/>
<feGaussianBlur stdDeviation="2.5"/>
<feComposite in2="hardAlpha" operator="out"/>
<feColorMatrix type="matrix" values="0 0 0 0 0.215686 0 0 0 0 0.235294 0 0 0 0 0.313726 0 0 0 0.05 0"/>
<feBlend mode="normal" in2="effect1_backgroundBlur_1304_1721" result="effect2_dropShadow_1304_1721"/>
<feBlend mode="normal" in="SourceGraphic" in2="effect2_dropShadow_1304_1721" result="shape"/>
</filter>
<clipPath id="clip0_1304_1721">
<rect width="40" height="55" fill="white"/>
</clipPath>
</defs>
</svg>
