<svg width="41" height="41" viewBox="0 0 41 41" fill="none" xmlns="http://www.w3.org/2000/svg">
<path d="M15.1626 11.5227H36.0106L24.6222 20.4658C24.3809 20.6551 24.0937 20.7475 23.8333 20.7729C23.5711 20.7471 23.2831 20.6547 23.0391 20.4658L14.9004 14.0724C14.8142 14.0031 14.7169 13.9502 14.6097 13.9173C14.9929 13.3769 15.2115 12.7231 15.2 12.0187C15.1977 11.8573 15.1835 11.6911 15.1626 11.5227ZM9.86086 5.7711C9.88708 5.77554 9.93019 5.79199 10.024 5.83554C10.2093 5.92354 10.504 6.15021 10.7924 6.46621C11.3733 7.0991 11.9537 8.05776 12.2551 8.69065C12.2644 8.70932 12.2742 8.72976 12.2831 8.75065C13.1382 10.2178 13.5071 11.34 13.5182 12.044C13.5302 12.7511 13.3404 13.0555 12.7409 13.4L11.1942 14.2915C10.1866 14.8715 9.71064 15.9111 9.59241 16.8809C9.47375 17.8511 9.64841 18.7938 10.08 19.5391L13.8977 26.1191C14.3302 26.864 15.0684 27.4871 15.9711 27.8698C16.8746 28.2533 18.0173 28.3618 19.0249 27.7831L20.5715 26.8933C21.1706 26.5498 21.5329 26.5427 22.1413 26.9044C22.7515 27.2671 23.544 28.1431 24.3955 29.6111C24.4075 29.6329 24.4191 29.6511 24.4329 29.672C24.832 30.2475 25.3755 31.224 25.6377 32.0418C25.768 32.448 25.8191 32.8151 25.8026 33.0182C25.7844 33.2222 25.78 33.2013 25.7262 33.2333L24.5493 33.908C21.5929 35.1902 18.8831 34.9009 16.4613 33.6449C14.0351 32.3835 11.9262 30.1058 10.456 27.4315C10.4511 27.4262 10.4489 27.4195 10.4449 27.416L7.22441 21.8658C7.21908 21.8604 7.21686 21.8555 7.21241 21.8484C5.61908 19.244 4.69064 16.2871 4.80708 13.5667C4.92352 10.8502 6.02575 8.37376 8.62219 6.46843L9.79952 5.79599C9.82664 5.78043 9.83553 5.76843 9.86086 5.7711ZM9.87286 4.11732C9.5613 4.11243 9.24353 4.17776 8.95775 4.34354L7.71286 5.05954C7.68486 5.07554 7.65908 5.09199 7.63375 5.10799C4.63864 7.29999 3.25952 10.3515 3.12486 13.4969C2.99019 16.6409 4.03997 19.8858 5.77419 22.7227L8.98397 28.2538L8.97641 28.2373C10.5786 31.1489 12.8746 33.6747 15.6804 35.1298C18.4875 36.5871 21.8315 36.9249 25.2377 35.4395C25.2657 35.4275 25.2942 35.4142 25.3195 35.3987L26.5662 34.6827C27.1426 34.3547 27.4324 33.7164 27.4795 33.1591C27.528 32.6035 27.4146 32.0627 27.2426 31.5298C26.9058 30.476 26.3182 29.4524 25.8329 28.7502C24.916 27.1729 24.0306 26.0782 23.0075 25.4662C21.9764 24.8515 20.7386 24.8604 19.7289 25.4409L18.1822 26.3324C17.7253 26.5955 17.1911 26.5649 16.6289 26.3271C16.0693 26.0893 15.5511 25.6138 15.3586 25.2804L11.5409 18.7009C11.348 18.3658 11.1902 17.6822 11.2649 17.0795C11.3369 16.4787 11.5809 16.008 12.0382 15.7444L13.5409 14.8804C13.58 15.0818 13.6937 15.2644 13.8586 15.3871L21.9977 21.7818C22.5271 22.1978 23.1542 22.4293 23.7857 22.4658C23.8177 22.4675 23.8506 22.4675 23.8831 22.4658C24.5151 22.4293 25.1391 22.1973 25.6689 21.7818L36.8786 12.9755V27.524C36.8786 27.7453 36.6262 28.0369 36.1311 28.0369H28.3706C27.9035 28.0342 27.5253 28.4111 27.5253 28.8755C27.5253 29.3391 27.904 29.716 28.3706 29.7133H36.1311C37.3995 29.7133 38.5653 28.7964 38.5653 27.524V12.0355C38.5653 10.7622 37.3995 9.84576 36.1311 9.84576H14.7009C14.4635 9.25243 14.1502 8.62354 13.7555 7.93999C13.3862 7.1711 12.7871 6.15465 12.0373 5.33732C11.6586 4.9231 11.2502 4.55599 10.7395 4.31865V4.32088C10.4857 4.20088 10.184 4.12399 9.87286 4.11732Z" fill="#373C50"/>
</svg>
