<svg width="80" height="80" viewBox="0 0 80 80" fill="none" xmlns="http://www.w3.org/2000/svg">
<rect width="80" height="80" rx="40" fill="white" fill-opacity="0.15"/>
<g clip-path="url(#clip0_626_5258)">
<path d="M40.5497 39.9973L51.8867 28.6603C52.0378 28.5092 52.0378 28.2642 51.8867 28.1131C51.7356 27.962 51.4906 27.962 51.3395 28.1131L40.0024 39.4501L28.6654 28.1131C28.5117 27.9646 28.2667 27.9689 28.1181 28.1226C27.9733 28.2726 27.9733 28.5103 28.1181 28.6603L39.4552 39.9973L28.1181 51.3344C27.9644 51.4829 27.9601 51.7279 28.1087 51.8816C28.2572 52.0354 28.5022 52.0396 28.6559 51.8911C28.6592 51.888 28.6623 51.8848 28.6654 51.8816L40.0024 40.5446L51.3395 51.8816C51.4932 52.0301 51.7382 52.0259 51.8867 51.8721C52.0316 51.7222 52.0316 51.4844 51.8867 51.3344L40.5497 39.9973Z" fill="#F7FAFF"/>
</g>
<defs>
<clipPath id="clip0_626_5258">
<rect width="24" height="24" fill="white" transform="translate(28 28)"/>
</clipPath>
</defs>
</svg>
