<svg width="25" height="24" viewBox="0 0 25 24" fill="none" xmlns="http://www.w3.org/2000/svg">
<path d="M21.4551 2.80469L12.7479 0.0386251C12.5862 -0.0128496 12.4123 -0.0128496 12.2505 0.0386251L3.54347 2.80469C3.20238 2.91297 2.9707 3.22966 2.9707 3.58755V14.4714C2.9707 16.7441 4.54977 19.0394 7.66404 21.2937C9.88391 22.9006 12.0715 23.887 12.1636 23.9282C12.2703 23.9761 12.3848 23.9999 12.4992 23.9999C12.6136 23.9999 12.728 23.976 12.8348 23.9282C12.9269 23.887 15.1145 22.9006 17.3343 21.2937C20.4486 19.0394 22.0277 16.744 22.0277 14.4714V3.58755C22.0278 3.22966 21.7962 2.91297 21.4551 2.80469ZM20.385 14.4714C20.385 17.8134 14.9804 21.0893 12.4989 22.2734C10.0174 21.0913 4.61353 17.8192 4.61353 14.4714V4.18844L12.4993 1.68331L20.385 4.18844V14.4714Z" fill="#737785"/>
<path d="M11.6775 5.90166V7.26659C10.38 7.37374 9.32031 8.47539 9.32031 9.7684C9.32031 11.1297 10.4945 12.2797 11.8844 12.2797H13.1133C13.5955 12.2797 14.0347 12.6937 14.0347 13.1482C14.0347 13.6026 13.5955 14.0164 13.1133 14.0164H10.1417C9.68807 14.0164 9.32031 14.3842 9.32031 14.8378C9.32031 15.2915 9.68807 15.6592 10.1417 15.6592H11.6775V16.9198C11.6775 17.3735 12.0452 17.7413 12.4989 17.7413C12.9526 17.7413 13.3203 17.3735 13.3203 16.9198V15.6499C14.6178 15.5426 15.6775 14.441 15.6775 13.1481C15.6775 11.7868 14.5032 10.6368 13.1133 10.6368H11.8844C11.4023 10.6368 10.9631 10.2229 10.9631 9.76832C10.9631 9.31386 11.4023 8.90004 11.8844 8.90004H14.8561C15.3097 8.90004 15.6775 8.53228 15.6775 8.07863C15.6775 7.62497 15.3097 7.25721 14.8561 7.25721H13.3203V5.90166C13.3203 5.448 12.9526 5.08024 12.4989 5.08024C12.0452 5.08024 11.6775 5.448 11.6775 5.90166Z" fill="#737785"/>
</svg>
