<svg width="24" height="24" viewBox="0 0 24 24" fill="none" xmlns="http://www.w3.org/2000/svg">
<path d="M20.625 22.5H19.125V1.125C19.125 0.917908 18.9571 0.75 18.75 0.75H5.25C5.23778 0.75 5.22743 0.755814 5.21551 0.756958C5.19518 0.758835 5.17692 0.763596 5.15717 0.768745C5.12196 0.777992 5.09003 0.79097 5.05968 0.809372C5.04989 0.815231 5.03794 0.815529 5.02863 0.822327C5.017 0.830818 5.00789 0.841667 4.99745 0.851326C4.99113 0.85714 4.98486 0.862289 4.97898 0.868515C4.95016 0.899002 4.92684 0.933334 4.90974 0.971237C4.90645 0.97847 4.90443 0.985886 4.9016 0.993347C4.88578 1.03519 4.875 1.07911 4.875 1.125V22.5H3.375C3.16791 22.5 3 22.6679 3 22.875C3 23.0821 3.16791 23.25 3.375 23.25H5.25C5.28809 23.25 5.32654 23.2441 5.36371 23.2324L13.6137 20.6074C13.7693 20.5578 13.875 20.4133 13.875 20.25V3.75C13.875 3.58667 13.7693 3.4422 13.6137 3.39258L7.6656 1.5H18.375V22.875C18.375 23.0821 18.5429 23.25 18.75 23.25H20.625C20.8321 23.25 21 23.0821 21 22.875C21 22.6679 20.8321 22.5 20.625 22.5ZM13.125 19.9757L5.625 22.3621V1.63788L13.125 4.02429V19.9757ZM11.625 13.125V10.875C11.625 10.6679 11.7929 10.5 12 10.5C12.2071 10.5 12.375 10.6679 12.375 10.875V13.125C12.375 13.3321 12.2071 13.5 12 13.5C11.7929 13.5 11.625 13.3321 11.625 13.125Z" fill="#737785"/>
</svg>
