<svg width="24" height="24" viewBox="0 0 24 24" fill="none" xmlns="http://www.w3.org/2000/svg">
<g clip-path="url(#clip0_1304_1460)">
<path d="M23.7374 17.2762L21.5034 16.463C21.2975 16.3885 21.0704 16.4949 20.9959 16.7008L20.8602 17.0729L18.2721 16.1291C18.2071 16.1047 18.1367 16.0987 18.0684 16.1113L12.6835 17.0622C12.1953 17.1491 11.7761 17.459 11.5493 17.8998L9.07919 16.9987C8.68469 16.8536 8.24821 16.873 7.86802 17.0523C7.38491 17.2777 7.04729 17.7301 6.96854 18.2573C6.86987 19.0204 7.32183 19.7477 8.04989 19.9971L16.1866 22.9586C16.2299 22.9747 16.276 22.983 16.3222 22.9828C16.3654 22.9828 16.4081 22.9757 16.4489 22.9619L18.7213 22.1948L18.9632 22.2826L18.8276 22.6551C18.7531 22.8609 18.8595 23.0883 19.0653 23.1628L21.2998 23.9757C21.343 23.9918 21.3888 24.0001 21.4349 23.9999C21.6014 24.0001 21.7504 23.8958 21.8073 23.7393L23.9756 17.7814C24.0486 17.5761 23.9421 17.3505 23.7374 17.2762ZM18.5993 21.4006L16.3269 22.1677L8.32076 19.2533C7.95044 19.1301 7.71421 18.7671 7.75174 18.3784C7.78521 18.1416 7.92374 17.9327 8.12883 17.8094C8.33392 17.6864 8.5835 17.6626 8.80813 17.7446L11.3791 18.6801C11.3804 18.7532 11.3862 18.8261 11.3969 18.8983C11.5522 19.7577 12.371 20.3316 13.2318 20.1842L17.6928 19.3977L17.5549 18.617L13.096 19.4037C12.6667 19.4766 12.258 19.1918 12.1779 18.7637C12.1615 18.6733 12.1621 18.5804 12.1799 18.4903C12.1828 18.4771 12.1851 18.464 12.1866 18.4506C12.1919 18.4167 12.201 18.3837 12.2139 18.3519C12.3112 18.0859 12.5426 17.8918 12.8214 17.8419L18.1009 16.9109L20.5894 17.8162L19.2341 21.5408L18.8616 21.4058C18.7773 21.3744 18.6848 21.3725 18.5993 21.4006ZM21.1963 23.097L19.7069 22.5548L21.604 17.342L23.0935 17.8839L21.1963 23.097Z" fill="#737785"/>
<path d="M9.3068 6.39173C9.43469 6.85994 9.67054 7.29179 9.99539 7.65224C9.98939 7.68397 9.98514 7.71589 9.9832 7.7482V9.90606C9.9832 10.5625 10.5153 11.0948 11.1719 11.0948V15.0572C11.171 15.2081 11.2561 15.3465 11.3909 15.4138L12.1834 15.81C12.2951 15.8657 12.4262 15.8657 12.5377 15.81L13.3302 15.4138C13.4652 15.3465 13.5502 15.2081 13.5494 15.0572V11.0948C14.2059 11.0948 14.7381 10.5625 14.7381 9.90606V7.7482C14.736 7.71357 14.7315 7.67913 14.725 7.64508C14.9896 7.35389 15.1959 7.01453 15.3325 6.64538C15.9175 6.74366 16.5032 6.47492 16.8104 5.96743C17.1871 5.34424 17.084 4.54344 16.5616 4.03614L13.3369 0.812221C12.818 0.290605 12.1118 -0.00193287 11.3759 1.90697e-06H7.20951C7.15572 -0.000191571 7.10271 0.0108367 7.05337 0.0321192L4.35649 1.18873H4.03957V0.396244C4.03957 0.177421 3.86215 1.90697e-06 3.64333 1.90697e-06H0.473391C0.254567 1.90697e-06 0.0771484 0.177421 0.0771484 0.396244V6.73612C0.0771484 6.95494 0.254567 7.13236 0.473391 7.13236H3.64333C3.86215 7.13236 4.03957 6.95494 4.03957 6.73612V5.94363H4.09742C4.38106 6.89458 5.6553 7.5286 6.81326 7.5286C7.77388 7.54834 8.69155 7.13004 9.3068 6.39173ZM3.24709 6.33988H0.869633V0.792486H3.24709V6.33988ZM12.7569 14.8123L12.3607 15.0104L11.9644 14.8123V11.0948H12.7569V14.8123ZM13.9456 9.90606C13.9456 10.1249 13.7682 10.3023 13.5494 10.3023H11.1719C10.9531 10.3023 10.7757 10.1249 10.7757 9.90606V8.28858C11.0421 8.44375 11.3302 8.55868 11.6303 8.6293C11.7673 8.96266 12.1107 9.16271 12.468 9.11744C12.8256 9.07236 13.1084 8.79317 13.1582 8.43621C13.2079 8.07943 13.0121 7.7335 12.6807 7.59226C12.349 7.45121 11.964 7.54969 11.7413 7.83294C11.5179 7.77432 11.3041 7.68319 11.1073 7.56227C11.4892 7.33068 11.9168 7.18402 12.3607 7.13236C12.9295 7.21227 13.472 7.42316 13.9456 7.7482V9.90606ZM14.2407 7.00273C13.6742 6.63841 13.0305 6.41146 12.3607 6.33988C11.692 6.41108 11.0493 6.63764 10.4835 7.00118C10.2419 6.69355 10.0819 6.32982 10.0184 5.94363H11.9644C12.5448 5.94944 13.0796 5.62943 13.3487 5.11516L14.4583 6.22456C14.5026 6.26597 14.5495 6.30447 14.5986 6.33988C14.517 6.57921 14.396 6.80326 14.2407 7.00273ZM13.5306 4.17602C13.4937 3.85175 13.3563 3.54703 13.138 3.30421C14.0342 3.61552 14.6597 4.42967 14.7294 5.37578L13.5306 4.17602ZM8.79448 5.54739C8.79448 6.14737 7.81296 6.73612 6.81326 6.73612C5.81357 6.73612 4.83205 6.14737 4.83205 5.54739C4.83205 5.32857 4.65463 5.15115 4.43581 5.15115H4.03957V1.98121H4.43581C4.48941 1.98141 4.54261 1.97038 4.59195 1.9491L7.28864 0.792486H11.3739C11.9002 0.790551 12.4055 0.999507 12.7766 1.37253L16.0005 4.59645C16.2612 4.83984 16.3198 5.23067 16.142 5.53985C16.0096 5.74938 15.7782 5.87514 15.5306 5.87224C15.5242 5.87224 15.5182 5.87224 15.5118 5.87224C15.5238 5.76447 15.53 5.65593 15.5306 5.54739C15.5287 3.79758 14.1105 2.37939 12.3607 2.37745C11.8282 2.37823 11.3047 2.51463 10.8393 2.7737H7.60575V3.56618H11.9644C12.4021 3.56618 12.7569 3.92102 12.7569 4.35867C12.7569 4.79631 12.4021 5.15115 11.9644 5.15115H9.19072C8.97189 5.15115 8.79448 5.32857 8.79448 5.54739Z" fill="#737785"/>
</g>
<defs>
<clipPath id="clip0_1304_1460">
<rect width="24" height="24" fill="white"/>
</clipPath>
</defs>
</svg>
