<svg width="24" height="24" viewBox="0 0 24 24" fill="none" xmlns="http://www.w3.org/2000/svg">
<g clip-path="url(#clip0_1304_1466)">
<path d="M1.19981 12.8C1.51812 12.8005 1.82354 12.6743 2.04861 12.4492C2.07981 12.418 3.99981 10.5016 3.99981 10.5016L4.98501 11.4876C5.36013 11.863 5.86909 12.074 6.39981 12.074C6.93053 12.074 7.43949 11.863 7.81461 11.4876L13.6834 5.6168L15.4682 7.4024C16.2501 8.18295 17.5163 8.18295 18.2982 7.4024L21.871 3.8248L22.1678 4.1216C22.4321 4.38565 22.826 4.47161 23.1763 4.34169C23.5266 4.21176 23.7692 3.88975 23.7974 3.5172L23.9974 0.940797V0.936797C24.0147 0.684204 23.922 0.436456 23.743 0.257349C23.5641 0.0782414 23.3164 -0.0147218 23.0638 0.00239713L20.485 0.202397C20.1126 0.229034 19.79 0.470673 19.6597 0.820599C19.5294 1.17052 19.6155 1.56429 19.8798 1.828L20.1766 2.1256L16.8826 5.4212L15.0982 3.6356C14.7231 3.26017 14.2141 3.04922 13.6834 3.04922C13.1527 3.04922 12.6437 3.26017 12.2686 3.6356L6.39981 9.5068L5.41541 8.52C4.63363 7.73922 3.36719 7.73922 2.58541 8.52L0.355412 10.756C0.0127009 11.098 -0.0902363 11.6127 0.094612 12.0602C0.27946 12.5076 0.71568 12.7996 1.19981 12.8ZM0.919812 11.32L3.15141 9.0836C3.37649 8.85826 3.68192 8.73165 4.00041 8.73165C4.3189 8.73165 4.62433 8.85826 4.84941 9.0836L6.11701 10.352C6.19204 10.4271 6.29385 10.4693 6.40001 10.4693C6.50618 10.4693 6.60799 10.4271 6.68301 10.352L12.8342 4.2C13.3093 3.746 14.0575 3.746 14.5326 4.2L16.3174 5.9856C16.634 6.28797 17.1324 6.28797 17.449 5.9856L21.0254 2.4072C21.1813 2.25104 21.1813 1.99815 21.0254 1.842L20.4442 1.2608C20.4003 1.22001 20.3864 1.15616 20.4094 1.1008C20.4296 1.04199 20.4837 1.00152 20.5458 0.998797L23.123 0.799997C23.1432 0.799089 23.1627 0.80697 23.1766 0.821597C23.1925 0.836775 23.2009 0.858086 23.1998 0.879997L22.9998 3.456C22.9954 3.51702 22.9559 3.56989 22.8986 3.59131C22.8413 3.61274 22.7767 3.59878 22.7334 3.5556L22.1538 2.9752C21.995 2.8251 21.7466 2.8251 21.5878 2.9752L17.7322 6.8364C17.2567 7.28912 16.5097 7.28912 16.0342 6.8364L14.2494 5.0508C14.0997 4.90006 13.8959 4.81551 13.6834 4.816C13.4713 4.81575 13.2679 4.90012 13.1182 5.0504L7.24941 10.922C6.77422 11.3758 6.02621 11.3758 5.55101 10.922L4.56581 9.936C4.25346 9.62396 3.74737 9.62396 3.43501 9.936L1.48181 11.886C1.32509 12.0394 1.07454 12.0394 0.917812 11.886C0.842154 11.8125 0.799464 11.7115 0.799464 11.606C0.799464 11.5005 0.842154 11.3995 0.917812 11.326L0.919812 11.32Z" fill="#737785"/>
<path d="M16.0003 15.2C16.0038 13.3165 14.6928 11.6857 12.8526 11.2844C11.0123 10.8831 9.14136 11.82 8.36037 13.534C7.57939 15.248 8.09997 17.2746 9.61031 18.4H9.60031C9.12607 18.3979 8.69547 18.6765 8.50302 19.1099C8.31057 19.5434 8.3927 20.0496 8.71231 20.4C8.29629 20.8522 8.29629 21.5478 8.71231 22C8.3927 22.3504 8.31057 22.8566 8.50302 23.2901C8.69547 23.7235 9.12607 24.0021 9.60031 24H14.4003C14.8746 24.0021 15.3052 23.7235 15.4976 23.2901C15.6901 22.8566 15.6079 22.3504 15.2883 22C15.7043 21.5478 15.7043 20.8522 15.2883 20.4C15.6079 20.0496 15.6901 19.5434 15.4976 19.1099C15.3052 18.6765 14.8746 18.3979 14.4003 18.4H14.3903C15.4022 17.6474 15.9991 16.4611 16.0003 15.2ZM14.8003 21.2C14.8003 21.4209 14.6212 21.6 14.4003 21.6H9.60031C9.3794 21.6 9.20031 21.4209 9.20031 21.2C9.20031 20.9791 9.3794 20.8 9.60031 20.8H14.4003C14.6212 20.8 14.8003 20.9791 14.8003 21.2ZM14.4003 23.2H9.60031C9.3794 23.2 9.20031 23.0209 9.20031 22.8C9.20031 22.5791 9.3794 22.4 9.60031 22.4H14.4003C14.6212 22.4 14.8003 22.5791 14.8003 22.8C14.8003 23.0209 14.6212 23.2 14.4003 23.2ZM14.4003 19.2C14.6212 19.2 14.8003 19.3791 14.8003 19.6C14.8003 19.8209 14.6212 20 14.4003 20H9.60031C9.3794 20 9.20031 19.8209 9.20031 19.6C9.20031 19.3791 9.3794 19.2 9.60031 19.2H14.4003ZM8.80031 15.2C8.80031 13.4327 10.233 12 12.0003 12C13.7676 12 15.2003 13.4327 15.2003 15.2C15.2003 16.9673 13.7676 18.4 12.0003 18.4C10.2338 18.398 8.8023 16.9665 8.80031 15.2Z" fill="#737785"/>
<path fill-rule="evenodd" clip-rule="evenodd" d="M12.0004 14.8C11.8063 14.7998 11.6404 14.6603 11.6068 14.4692C11.5732 14.2781 11.6817 14.0904 11.8641 14.0241C12.0465 13.9578 12.2501 14.0319 12.3472 14.2C12.4162 14.3284 12.5497 14.409 12.6955 14.4104C12.8413 14.4119 12.9763 14.3339 13.0479 14.2069C13.1194 14.0799 13.1163 13.924 13.0396 13.8C12.8946 13.5566 12.6681 13.3724 12.4004 13.28V13.2C12.4004 12.9791 12.2213 12.8 12.0004 12.8C11.7794 12.8 11.6004 12.9791 11.6004 13.2V13.2736C11.0497 13.4675 10.7193 14.0303 10.8182 14.6057C10.9171 15.181 11.4166 15.6011 12.0004 15.6C12.1944 15.6002 12.3604 15.7397 12.3939 15.9308C12.4275 16.1219 12.319 16.3096 12.1367 16.3759C11.9543 16.4422 11.7506 16.3681 11.6536 16.2C11.5398 16.0161 11.3005 15.9559 11.1133 16.0641C10.9261 16.1722 10.8587 16.4096 10.9612 16.6C11.1064 16.8435 11.3331 17.0277 11.6012 17.12V17.2C11.6012 17.4209 11.7802 17.6 12.0012 17.6C12.2221 17.6 12.4012 17.4209 12.4012 17.2V17.1264C12.9519 16.9324 13.2824 16.3694 13.1833 15.7939C13.0841 15.2185 12.5843 14.7985 12.0004 14.8Z" fill="#737785"/>
<path d="M19.9999 8C18.2768 7.99808 16.7466 9.10115 16.2037 10.7365C15.6608 12.3719 16.2277 14.1711 17.6099 15.2H17.5999C17.1257 15.1979 16.6951 15.4765 16.5026 15.9099C16.3102 16.3434 16.3923 16.8496 16.7119 17.2C16.2959 17.6522 16.2959 18.3478 16.7119 18.8C16.2959 19.2522 16.2959 19.9478 16.7119 20.4C16.2959 20.8522 16.2959 21.5478 16.7119 22C16.3923 22.3504 16.3102 22.8566 16.5026 23.2901C16.6951 23.7235 17.1257 24.0021 17.5999 24H22.3999C22.8742 24.0021 23.3047 23.7235 23.4972 23.2901C23.6896 22.8566 23.6075 22.3504 23.2879 22C23.7039 21.5478 23.7039 20.8522 23.2879 20.4C23.7039 19.9478 23.7039 19.2522 23.2879 18.8C23.7039 18.3478 23.7039 17.6522 23.2879 17.2C23.6075 16.8496 23.6896 16.3434 23.4972 15.9099C23.3047 15.4765 22.8742 15.1979 22.3999 15.2H22.3895C23.7722 14.1714 24.3394 12.3721 23.7966 10.7365C23.2538 9.10085 21.7232 7.99773 19.9999 8ZM22.7999 18C22.7999 18.2209 22.6208 18.4 22.3999 18.4H17.5999C17.379 18.4 17.1999 18.2209 17.1999 18C17.1999 17.7791 17.379 17.6 17.5999 17.6H22.3999C22.6208 17.6 22.7999 17.7791 22.7999 18ZM22.7999 19.6C22.7999 19.8209 22.6208 20 22.3999 20H17.5999C17.379 20 17.1999 19.8209 17.1999 19.6C17.1999 19.3791 17.379 19.2 17.5999 19.2H22.3999C22.6208 19.2 22.7999 19.3791 22.7999 19.6ZM22.7999 21.2C22.7999 21.4209 22.6208 21.6 22.3999 21.6H17.5999C17.379 21.6 17.1999 21.4209 17.1999 21.2C17.1999 20.9791 17.379 20.8 17.5999 20.8H22.3999C22.6208 20.8 22.7999 20.9791 22.7999 21.2ZM22.3999 23.2H17.5999C17.379 23.2 17.1999 23.0209 17.1999 22.8C17.1999 22.5791 17.379 22.4 17.5999 22.4H22.3999C22.6208 22.4 22.7999 22.5791 22.7999 22.8C22.7999 23.0209 22.6208 23.2 22.3999 23.2ZM22.3999 16C22.6208 16 22.7999 16.1791 22.7999 16.4C22.7999 16.6209 22.6208 16.8 22.3999 16.8H17.5999C17.379 16.8 17.1999 16.6209 17.1999 16.4C17.1999 16.1791 17.379 16 17.5999 16H22.3999ZM19.9999 15.2C18.2326 15.2 16.7999 13.7673 16.7999 12C16.7999 10.2327 18.2326 8.8 19.9999 8.8C21.7672 8.8 23.1999 10.2327 23.1999 12C23.1979 13.7665 21.7664 15.198 19.9999 15.2Z" fill="#737785"/>
<path fill-rule="evenodd" clip-rule="evenodd" d="M20.0004 11.6C19.8063 11.5998 19.6404 11.4603 19.6068 11.2692C19.5732 11.0781 19.6817 10.8904 19.8641 10.8241C20.0465 10.7578 20.2501 10.8319 20.3472 11C20.4609 11.1839 20.7002 11.2441 20.8874 11.1359C21.0746 11.0278 21.142 10.7904 21.0396 10.6C20.8947 10.3565 20.6682 10.1722 20.4004 10.08V10C20.4004 9.77908 20.2213 9.6 20.0004 9.6C19.7794 9.6 19.6004 9.77908 19.6004 10V10.0736C19.0497 10.2675 18.7193 10.8303 18.8182 11.4057C18.9171 11.981 19.4166 12.4011 20.0004 12.4C20.1944 12.4002 20.3604 12.5397 20.3939 12.7308C20.4275 12.9219 20.319 13.1096 20.1367 13.1759C19.9543 13.2422 19.7506 13.1681 19.6536 13C19.5398 12.8161 19.3005 12.7559 19.1133 12.8641C18.9261 12.9722 18.8587 13.2096 18.9612 13.4C19.1062 13.6437 19.333 13.8279 19.6012 13.92V14C19.6012 14.2209 19.7802 14.4 20.0012 14.4C20.2221 14.4 20.4012 14.2209 20.4012 14V13.9264C20.9519 13.7324 21.2824 13.1694 21.1833 12.5939C21.0841 12.0185 20.5843 11.5985 20.0004 11.6Z" fill="#737785"/>
<path d="M1.61026 21.6H1.60026C0.937519 21.6 0.400261 22.1373 0.400261 22.8C0.400261 23.4627 0.937519 24 1.60026 24H6.40026C7.063 24 7.60026 23.4627 7.60026 22.8C7.60026 22.1373 7.063 21.6 6.40026 21.6H6.39026C7.7727 20.5699 8.33959 18.7699 7.79696 17.1335C7.25433 15.4971 5.72428 14.3925 4.00026 14.3925C2.27624 14.3925 0.746188 15.4971 0.203558 17.1335C-0.339072 18.7699 0.227823 20.5699 1.61026 21.6ZM6.40026 22.4C6.62118 22.4 6.80026 22.5791 6.80026 22.8C6.80026 23.0209 6.62118 23.2 6.40026 23.2H1.60026C1.37935 23.2 1.20026 23.0209 1.20026 22.8C1.20026 22.5791 1.37935 22.4 1.60026 22.4H6.40026ZM4.00026 15.2C5.76757 15.2 7.20026 16.6327 7.20026 18.4C7.20026 20.1673 5.76757 21.6 4.00026 21.6C2.23295 21.6 0.800261 20.1673 0.800261 18.4C0.802245 16.6335 2.23377 15.202 4.00026 15.2Z" fill="#737785"/>
<path fill-rule="evenodd" clip-rule="evenodd" d="M4.00036 18.8C4.19443 18.8002 4.36037 18.9397 4.39394 19.1308C4.42752 19.3219 4.31905 19.5096 4.13666 19.5759C3.95427 19.6422 3.7506 19.5681 3.65356 19.4C3.58448 19.2716 3.45102 19.191 3.30524 19.1896C3.15947 19.1881 3.02446 19.2661 2.95287 19.3931C2.88129 19.5201 2.88446 19.676 2.96116 19.8C3.10637 20.0435 3.3331 20.2277 3.60116 20.32V20.4C3.60116 20.6209 3.78025 20.8 4.00116 20.8C4.22208 20.8 4.40116 20.6209 4.40116 20.4V20.3264C4.95193 20.1324 5.2824 19.5694 5.18326 18.9939C5.08411 18.4185 4.58429 17.9985 4.00036 18C3.80629 17.9998 3.64036 17.8603 3.60678 17.6692C3.57321 17.4781 3.68168 17.2904 3.86407 17.2241C4.04645 17.1578 4.25013 17.2319 4.34716 17.4C4.41625 17.5284 4.5497 17.609 4.69548 17.6104C4.84126 17.6119 4.97627 17.5339 5.04785 17.4069C5.11944 17.2799 5.11626 17.124 5.03956 17C4.89455 16.7567 4.66813 16.5725 4.40036 16.48V16.4C4.40036 16.1791 4.22128 16 4.00036 16C3.77945 16 3.60036 16.1791 3.60036 16.4V16.4736C3.04974 16.6675 2.71929 17.2303 2.81821 17.8057C2.91713 18.381 3.41659 18.8011 4.00036 18.8Z" fill="#737785"/>
</g>
<defs>
<clipPath id="clip0_1304_1466">
<rect width="24" height="24" fill="white"/>
</clipPath>
</defs>
</svg>
