<svg width="24" height="24" viewBox="0 0 24 24" fill="none" xmlns="http://www.w3.org/2000/svg">
<g clip-path="url(#clip0_1304_1479)">
<path d="M19.992 0.359999C19.8904 0.251563 19.7677 0.165123 19.6314 0.106029C19.4951 0.0469341 19.3481 0.0164433 19.1996 0.0164433C19.051 0.0164433 18.904 0.0469341 18.7677 0.106029C18.6314 0.165123 18.5087 0.251563 18.4072 0.359999L14.6712 4.6076C14.5318 4.76353 14.4411 4.95679 14.4102 5.1636C14.3793 5.37041 14.4095 5.58174 14.4972 5.7716C14.5794 5.95903 14.7146 6.11835 14.8861 6.22999C15.0577 6.34163 15.2581 6.40072 15.4628 6.4H16.7996V22.8C16.7996 23.1183 16.926 23.4235 17.151 23.6485C17.3761 23.8736 17.6813 24 17.9996 24H20.3996C20.7178 24 21.0231 23.8736 21.2481 23.6485C21.4731 23.4235 21.5996 23.1183 21.5996 22.8V6.4H22.936C23.1406 6.40072 23.3411 6.34163 23.5126 6.22999C23.6842 6.11835 23.8193 5.95903 23.9016 5.7716C23.9892 5.58177 24.0195 5.37047 23.9886 5.16367C23.9578 4.95687 23.8672 4.7636 23.728 4.6076L19.992 0.359999ZM23.1732 5.4428C23.1537 5.48954 23.1208 5.52946 23.0787 5.55752C23.0365 5.58557 22.987 5.60049 22.9364 5.6004H21.1996C21.0935 5.6004 20.9917 5.64254 20.9167 5.71756C20.8417 5.79257 20.7996 5.89431 20.7996 6.0004V22.8C20.7996 22.9061 20.7574 23.0078 20.6824 23.0828C20.6074 23.1579 20.5057 23.2 20.3996 23.2H17.9996C17.8935 23.2 17.7917 23.1579 17.7167 23.0828C17.6417 23.0078 17.5996 22.9061 17.5996 22.8V6C17.5996 5.89391 17.5574 5.79217 17.4824 5.71716C17.4074 5.64214 17.3057 5.6 17.1996 5.6H15.4628C15.4121 5.60009 15.3626 5.58517 15.3205 5.55712C15.2783 5.52906 15.2454 5.48914 15.226 5.4424C15.2028 5.39245 15.1948 5.33682 15.2029 5.28238C15.211 5.22793 15.2349 5.17705 15.2716 5.136L19.008 0.889599C19.0314 0.861603 19.0608 0.839089 19.0939 0.823642C19.127 0.808195 19.163 0.80019 19.1996 0.80019C19.2361 0.80019 19.2722 0.808195 19.3053 0.823642C19.3384 0.839089 19.3677 0.861603 19.3912 0.889599L23.128 5.1376C23.1646 5.17849 23.1885 5.22926 23.1965 5.2836C23.2046 5.33794 23.1964 5.39304 23.1732 5.4428Z" fill="#737785"/>
<path d="M14.8002 8H12.4002C12.0819 8 11.7767 8.12643 11.5517 8.35147C11.3266 8.57652 11.2002 8.88174 11.2002 9.2V22.8C11.2002 23.1183 11.3266 23.4235 11.5517 23.6485C11.7767 23.8736 12.0819 24 12.4002 24H14.8002C15.1185 24 15.4237 23.8736 15.6487 23.6485C15.8738 23.4235 16.0002 23.1183 16.0002 22.8V9.2C16.0002 8.88174 15.8738 8.57652 15.6487 8.35147C15.4237 8.12643 15.1185 8 14.8002 8ZM15.2002 22.8C15.2002 22.9061 15.1581 23.0078 15.083 23.0828C15.008 23.1579 14.9063 23.2 14.8002 23.2H12.4002C12.2941 23.2 12.1924 23.1579 12.1174 23.0828C12.0423 23.0078 12.0002 22.9061 12.0002 22.8V9.2C12.0002 9.09391 12.0423 8.99217 12.1174 8.91716C12.1924 8.84214 12.2941 8.8 12.4002 8.8H14.8002C14.9063 8.8 15.008 8.84214 15.083 8.91716C15.1581 8.99217 15.2002 9.09391 15.2002 9.2V22.8Z" fill="#737785"/>
<path d="M9.19961 10.8H6.79961C6.48135 10.8 6.17612 10.9264 5.95108 11.1515C5.72604 11.3765 5.59961 11.6817 5.59961 12V22.8C5.59961 23.1183 5.72604 23.4235 5.95108 23.6485C6.17612 23.8736 6.48135 24 6.79961 24H9.19961C9.51787 24 9.82309 23.8736 10.0481 23.6485C10.2732 23.4235 10.3996 23.1183 10.3996 22.8V12C10.3996 11.6817 10.2732 11.3765 10.0481 11.1515C9.82309 10.9264 9.51787 10.8 9.19961 10.8ZM9.59961 22.8C9.59961 22.9061 9.55747 23.0078 9.48245 23.0828C9.40744 23.1579 9.3057 23.2 9.19961 23.2H6.79961C6.69352 23.2 6.59178 23.1579 6.51677 23.0828C6.44175 23.0078 6.39961 22.9061 6.39961 22.8V12C6.39961 11.8939 6.44175 11.7922 6.51677 11.7172C6.59178 11.6421 6.69352 11.6 6.79961 11.6H9.19961C9.3057 11.6 9.40744 11.6421 9.48245 11.7172C9.55747 11.7922 9.59961 11.8939 9.59961 12V22.8Z" fill="#737785"/>
<path d="M3.6 14H1.2C0.88174 14 0.576515 14.1264 0.351472 14.3515C0.126428 14.5765 0 14.8817 0 15.2L0 22.8C0 23.1183 0.126428 23.4235 0.351472 23.6485C0.576515 23.8736 0.88174 24 1.2 24H3.6C3.91826 24 4.22348 23.8736 4.44853 23.6485C4.67357 23.4235 4.8 23.1183 4.8 22.8V15.2C4.8 14.8817 4.67357 14.5765 4.44853 14.3515C4.22348 14.1264 3.91826 14 3.6 14ZM4 22.8C4 22.9061 3.95786 23.0078 3.88284 23.0828C3.80783 23.1579 3.70609 23.2 3.6 23.2H1.2C1.09391 23.2 0.992172 23.1579 0.917157 23.0828C0.842143 23.0078 0.8 22.9061 0.8 22.8V15.2C0.8 15.0939 0.842143 14.9922 0.917157 14.9172C0.992172 14.8421 1.09391 14.8 1.2 14.8H3.6C3.70609 14.8 3.80783 14.8421 3.88284 14.9172C3.95786 14.9922 4 15.0939 4 15.2V22.8Z" fill="#737785"/>
</g>
<defs>
<clipPath id="clip0_1304_1479">
<rect width="24" height="24" fill="white"/>
</clipPath>
</defs>
</svg>
