<svg width="24" height="25" viewBox="0 0 24 25" fill="none" xmlns="http://www.w3.org/2000/svg">
<g clip-path="url(#clip0_1304_1440)">
<path d="M12.0005 0.5C7.11182 0.5 3.13477 4.47705 3.13477 9.36571C3.13477 10.9751 3.85654 12.706 3.88679 12.779C4.1199 13.3323 4.57988 14.1918 4.91156 14.6956L10.9903 23.906C11.2391 24.2836 11.6073 24.5 12.0005 24.5C12.3937 24.5 12.7619 24.2836 13.0106 23.9065L19.0899 14.6956C19.4221 14.1918 19.8816 13.3323 20.1147 12.779C20.1449 12.7065 20.8662 10.9756 20.8662 9.36571C20.8662 4.47705 16.8891 0.5 12.0005 0.5ZM19.153 12.3743C18.9449 12.8703 18.5168 13.6698 18.219 14.1214L12.1397 23.3323C12.0198 23.5143 11.9817 23.5143 11.8618 23.3323L5.78248 14.1214C5.4847 13.6698 5.05654 12.8698 4.84845 12.3738C4.83959 12.3524 4.17779 10.7592 4.17779 9.36571C4.17779 5.05228 7.68705 1.54302 12.0005 1.54302C16.3139 1.54302 19.8232 5.05228 19.8232 9.36571C19.8232 10.7613 19.1598 12.3587 19.153 12.3743Z" fill="#737785"/>
<path d="M12.0003 4.67262C9.41199 4.67262 7.30664 6.77849 7.30664 9.36623C7.30664 11.954 9.41199 14.0598 12.0003 14.0598C14.5885 14.0598 16.6939 11.954 16.6939 9.36623C16.6939 6.77849 14.5885 4.67262 12.0003 4.67262ZM12.0003 13.0168C9.98774 13.0168 8.34967 11.3793 8.34967 9.36623C8.34967 7.3532 9.98774 5.71565 12.0003 5.71565C14.0128 5.71565 15.6508 7.3532 15.6508 9.36623C15.6508 11.3793 14.0128 13.0168 12.0003 13.0168Z" fill="#737785"/>
</g>
<defs>
<clipPath id="clip0_1304_1440">
<rect width="24" height="24" fill="white" transform="translate(0 0.5)"/>
</clipPath>
</defs>
</svg>
