<svg width="24" height="24" viewBox="0 0 24 24" fill="none" xmlns="http://www.w3.org/2000/svg">
<path d="M11.4626 4.97494L16.0092 8.00606C18.0123 9.34143 19.0138 10.0091 19.3628 10.8507C19.668 11.5865 19.668 12.4133 19.3628 13.1491C19.0138 13.9907 18.0123 14.6584 16.0092 15.9937L11.4626 19.0249C9.03848 20.641 7.8263 21.449 6.82119 21.389C5.94557 21.3367 5.13668 20.9038 4.60747 20.2043C4 19.4013 4 17.9445 4 15.031V8.96878C4 6.05529 4 4.59855 4.60747 3.79553C5.13668 3.09597 5.94557 2.66307 6.82119 2.61078C7.82631 2.55077 9.03839 3.35883 11.4626 4.97494Z" fill="#42CE8F" stroke="#42CE8F"/>
</svg>
