<svg width="178" height="50" viewBox="0 0 178 50" fill="none" xmlns="http://www.w3.org/2000/svg">
<path d="M79.5 20.4H99.5V0.4H79.5V20.4ZM12.8414 34.96V49H9.42141V43.22H4.10141V49H0.681406V34.96H4.10141V40.46H9.42141V34.96H12.8414ZM25.8303 43.24C25.8303 43.56 25.8103 43.8933 25.7703 44.24H18.0303C18.0836 44.9333 18.3036 45.4667 18.6903 45.84C19.0903 46.2 19.577 46.38 20.1503 46.38C21.0036 46.38 21.597 46.02 21.9303 45.3H25.5703C25.3836 46.0333 25.0436 46.6933 24.5503 47.28C24.0703 47.8667 23.4636 48.3267 22.7303 48.66C21.997 48.9933 21.177 49.16 20.2703 49.16C19.177 49.16 18.2036 48.9267 17.3503 48.46C16.497 47.9933 15.8303 47.3267 15.3503 46.46C14.8703 45.5933 14.6303 44.58 14.6303 43.42C14.6303 42.26 14.8636 41.2467 15.3303 40.38C15.8103 39.5133 16.477 38.8467 17.3303 38.38C18.1836 37.9133 19.1636 37.68 20.2703 37.68C21.3503 37.68 22.3103 37.9067 23.1503 38.36C23.9903 38.8133 24.6436 39.46 25.1103 40.3C25.5903 41.14 25.8303 42.12 25.8303 43.24ZM22.3303 42.34C22.3303 41.7533 22.1303 41.2867 21.7303 40.94C21.3303 40.5933 20.8303 40.42 20.2303 40.42C19.657 40.42 19.1703 40.5867 18.7703 40.92C18.3836 41.2533 18.1436 41.7267 18.0503 42.34H22.3303ZM32.1745 49.16C31.2012 49.16 30.3345 48.9933 29.5745 48.66C28.8145 48.3267 28.2145 47.8733 27.7745 47.3C27.3345 46.7133 27.0879 46.06 27.0345 45.34H30.4145C30.4545 45.7267 30.6345 46.04 30.9545 46.28C31.2745 46.52 31.6679 46.64 32.1345 46.64C32.5612 46.64 32.8879 46.56 33.1145 46.4C33.3545 46.2267 33.4745 46.0067 33.4745 45.74C33.4745 45.42 33.3079 45.1867 32.9745 45.04C32.6412 44.88 32.1012 44.7067 31.3545 44.52C30.5545 44.3333 29.8879 44.14 29.3545 43.94C28.8212 43.7267 28.3612 43.4 27.9745 42.96C27.5879 42.5067 27.3945 41.9 27.3945 41.14C27.3945 40.5 27.5679 39.92 27.9145 39.4C28.2745 38.8667 28.7945 38.4467 29.4745 38.14C30.1679 37.8333 30.9879 37.68 31.9345 37.68C33.3345 37.68 34.4345 38.0267 35.2345 38.72C36.0479 39.4133 36.5145 40.3333 36.6345 41.48H33.4745C33.4212 41.0933 33.2479 40.7867 32.9545 40.56C32.6745 40.3333 32.3012 40.22 31.8345 40.22C31.4345 40.22 31.1279 40.3 30.9145 40.46C30.7012 40.6067 30.5945 40.8133 30.5945 41.08C30.5945 41.4 30.7612 41.64 31.0945 41.8C31.4412 41.96 31.9745 42.12 32.6945 42.28C33.5212 42.4933 34.1945 42.7067 34.7145 42.92C35.2345 43.12 35.6879 43.4533 36.0745 43.92C36.4745 44.3733 36.6812 44.9867 36.6945 45.76C36.6945 46.4133 36.5079 47 36.1345 47.52C35.7745 48.0267 35.2479 48.4267 34.5545 48.72C33.8745 49.0133 33.0812 49.16 32.1745 49.16ZM43.3269 49.16C42.3535 49.16 41.4869 48.9933 40.7269 48.66C39.9669 48.3267 39.3669 47.8733 38.9269 47.3C38.4869 46.7133 38.2402 46.06 38.1869 45.34H41.5669C41.6069 45.7267 41.7869 46.04 42.1069 46.28C42.4269 46.52 42.8202 46.64 43.2869 46.64C43.7135 46.64 44.0402 46.56 44.2669 46.4C44.5069 46.2267 44.6269 46.0067 44.6269 45.74C44.6269 45.42 44.4602 45.1867 44.1269 45.04C43.7935 44.88 43.2535 44.7067 42.5069 44.52C41.7069 44.3333 41.0402 44.14 40.5069 43.94C39.9735 43.7267 39.5135 43.4 39.1269 42.96C38.7402 42.5067 38.5469 41.9 38.5469 41.14C38.5469 40.5 38.7202 39.92 39.0669 39.4C39.4269 38.8667 39.9469 38.4467 40.6269 38.14C41.3202 37.8333 42.1402 37.68 43.0869 37.68C44.4869 37.68 45.5869 38.0267 46.3869 38.72C47.2002 39.4133 47.6669 40.3333 47.7869 41.48H44.6269C44.5735 41.0933 44.4002 40.7867 44.1069 40.56C43.8269 40.3333 43.4535 40.22 42.9869 40.22C42.5869 40.22 42.2802 40.3 42.0669 40.46C41.8535 40.6067 41.7469 40.8133 41.7469 41.08C41.7469 41.4 41.9135 41.64 42.2469 41.8C42.5935 41.96 43.1269 42.12 43.8469 42.28C44.6735 42.4933 45.3469 42.7067 45.8669 42.92C46.3869 43.12 46.8402 43.4533 47.2269 43.92C47.6269 44.3733 47.8335 44.9867 47.8469 45.76C47.8469 46.4133 47.6602 47 47.2869 47.52C46.9269 48.0267 46.4002 48.4267 45.7069 48.72C45.0269 49.0133 44.2335 49.16 43.3269 49.16ZM49.2592 43.4C49.2592 42.2533 49.4726 41.2467 49.8992 40.38C50.3392 39.5133 50.9326 38.8467 51.6792 38.38C52.4259 37.9133 53.2592 37.68 54.1792 37.68C54.9659 37.68 55.6526 37.84 56.2392 38.16C56.8392 38.48 57.2992 38.9 57.6192 39.42V37.84H61.0392V49H57.6192V47.42C57.2859 47.94 56.8192 48.36 56.2192 48.68C55.6326 49 54.9459 49.16 54.1592 49.16C53.2526 49.16 52.4259 48.9267 51.6792 48.46C50.9326 47.98 50.3392 47.3067 49.8992 46.44C49.4726 45.56 49.2592 44.5467 49.2592 43.4ZM57.6192 43.42C57.6192 42.5667 57.3792 41.8933 56.8992 41.4C56.4326 40.9067 55.8592 40.66 55.1792 40.66C54.4992 40.66 53.9192 40.9067 53.4392 41.4C52.9726 41.88 52.7392 42.5467 52.7392 43.4C52.7392 44.2533 52.9726 44.9333 53.4392 45.44C53.9192 45.9333 54.4992 46.18 55.1792 46.18C55.8592 46.18 56.4326 45.9333 56.8992 45.44C57.3792 44.9467 57.6192 44.2733 57.6192 43.42ZM74.9117 49L71.9917 43.7H71.1717V49H67.7517V34.96H73.4917C74.5984 34.96 75.5384 35.1533 76.3117 35.54C77.0984 35.9267 77.6851 36.46 78.0717 37.14C78.4584 37.8067 78.6517 38.5533 78.6517 39.38C78.6517 40.3133 78.3851 41.1467 77.8517 41.88C77.3317 42.6133 76.5584 43.1333 75.5317 43.44L78.7717 49H74.9117ZM71.1717 41.28H73.2917C73.9184 41.28 74.3851 41.1267 74.6917 40.82C75.0117 40.5133 75.1717 40.08 75.1717 39.52C75.1717 38.9867 75.0117 38.5667 74.6917 38.26C74.3851 37.9533 73.9184 37.8 73.2917 37.8H71.1717V41.28ZM91.3186 43.24C91.3186 43.56 91.2986 43.8933 91.2586 44.24H83.5186C83.5719 44.9333 83.7919 45.4667 84.1786 45.84C84.5786 46.2 85.0653 46.38 85.6386 46.38C86.4919 46.38 87.0853 46.02 87.4186 45.3H91.0586C90.8719 46.0333 90.5319 46.6933 90.0386 47.28C89.5586 47.8667 88.9519 48.3267 88.2186 48.66C87.4853 48.9933 86.6653 49.16 85.7586 49.16C84.6653 49.16 83.6919 48.9267 82.8386 48.46C81.9853 47.9933 81.3186 47.3267 80.8386 46.46C80.3586 45.5933 80.1186 44.58 80.1186 43.42C80.1186 42.26 80.3519 41.2467 80.8186 40.38C81.2986 39.5133 81.9653 38.8467 82.8186 38.38C83.6719 37.9133 84.6519 37.68 85.7586 37.68C86.8386 37.68 87.7986 37.9067 88.6386 38.36C89.4786 38.8133 90.1319 39.46 90.5986 40.3C91.0786 41.14 91.3186 42.12 91.3186 43.24ZM87.8186 42.34C87.8186 41.7533 87.6186 41.2867 87.2186 40.94C86.8186 40.5933 86.3186 40.42 85.7186 40.42C85.1453 40.42 84.6586 40.5867 84.2586 40.92C83.8719 41.2533 83.6319 41.7267 83.5386 42.34H87.8186ZM109.143 37.84L106.123 49H102.343L100.583 41.76L98.7628 49H95.0028L91.9628 37.84H95.3828L96.9628 45.82L98.8428 37.84H102.463L104.363 45.78L105.923 37.84H109.143ZM109.767 43.4C109.767 42.2533 109.98 41.2467 110.407 40.38C110.847 39.5133 111.44 38.8467 112.187 38.38C112.934 37.9133 113.767 37.68 114.687 37.68C115.474 37.68 116.16 37.84 116.747 38.16C117.347 38.48 117.807 38.9 118.127 39.42V37.84H121.547V49H118.127V47.42C117.794 47.94 117.327 48.36 116.727 48.68C116.14 49 115.454 49.16 114.667 49.16C113.76 49.16 112.934 48.9267 112.187 48.46C111.44 47.98 110.847 47.3067 110.407 46.44C109.98 45.56 109.767 44.5467 109.767 43.4ZM118.127 43.42C118.127 42.5667 117.887 41.8933 117.407 41.4C116.94 40.9067 116.367 40.66 115.687 40.66C115.007 40.66 114.427 40.9067 113.947 41.4C113.48 41.88 113.247 42.5467 113.247 43.4C113.247 44.2533 113.48 44.9333 113.947 45.44C114.427 45.9333 115.007 46.18 115.687 46.18C116.367 46.18 116.94 45.9333 117.407 45.44C117.887 44.9467 118.127 44.2733 118.127 43.42ZM127.441 39.7C127.841 39.0867 128.341 38.6067 128.941 38.26C129.541 37.9 130.208 37.72 130.941 37.72V41.34H130.001C129.148 41.34 128.508 41.5267 128.081 41.9C127.655 42.26 127.441 42.9 127.441 43.82V49H124.021V37.84H127.441V39.7ZM131.896 43.4C131.896 42.2533 132.109 41.2467 132.536 40.38C132.976 39.5133 133.569 38.8467 134.316 38.38C135.063 37.9133 135.896 37.68 136.816 37.68C137.549 37.68 138.216 37.8333 138.816 38.14C139.429 38.4467 139.909 38.86 140.256 39.38V34.2H143.676V49H140.256V47.4C139.936 47.9333 139.476 48.36 138.876 48.68C138.289 49 137.603 49.16 136.816 49.16C135.896 49.16 135.063 48.9267 134.316 48.46C133.569 47.98 132.976 47.3067 132.536 46.44C132.109 45.56 131.896 44.5467 131.896 43.4ZM140.256 43.42C140.256 42.5667 140.016 41.8933 139.536 41.4C139.069 40.9067 138.496 40.66 137.816 40.66C137.136 40.66 136.556 40.9067 136.076 41.4C135.609 41.88 135.376 42.5467 135.376 43.4C135.376 44.2533 135.609 44.9333 136.076 45.44C136.556 45.9333 137.136 46.18 137.816 46.18C138.496 46.18 139.069 45.9333 139.536 45.44C140.016 44.9467 140.256 44.2733 140.256 43.42ZM150.69 49.16C149.717 49.16 148.85 48.9933 148.09 48.66C147.33 48.3267 146.73 47.8733 146.29 47.3C145.85 46.7133 145.603 46.06 145.55 45.34H148.93C148.97 45.7267 149.15 46.04 149.47 46.28C149.79 46.52 150.183 46.64 150.65 46.64C151.077 46.64 151.403 46.56 151.63 46.4C151.87 46.2267 151.99 46.0067 151.99 45.74C151.99 45.42 151.823 45.1867 151.49 45.04C151.157 44.88 150.617 44.7067 149.87 44.52C149.07 44.3333 148.403 44.14 147.87 43.94C147.337 43.7267 146.877 43.4 146.49 42.96C146.103 42.5067 145.91 41.9 145.91 41.14C145.91 40.5 146.083 39.92 146.43 39.4C146.79 38.8667 147.31 38.4467 147.99 38.14C148.683 37.8333 149.503 37.68 150.45 37.68C151.85 37.68 152.95 38.0267 153.75 38.72C154.563 39.4133 155.03 40.3333 155.15 41.48H151.99C151.937 41.0933 151.763 40.7867 151.47 40.56C151.19 40.3333 150.817 40.22 150.35 40.22C149.95 40.22 149.643 40.3 149.43 40.46C149.217 40.6067 149.11 40.8133 149.11 41.08C149.11 41.4 149.277 41.64 149.61 41.8C149.957 41.96 150.49 42.12 151.21 42.28C152.037 42.4933 152.71 42.7067 153.23 42.92C153.75 43.12 154.203 43.4533 154.59 43.92C154.99 44.3733 155.197 44.9867 155.21 45.76C155.21 46.4133 155.023 47 154.65 47.52C154.29 48.0267 153.763 48.4267 153.07 48.72C152.39 49.0133 151.597 49.16 150.69 49.16ZM161.803 34.46L161.403 44.04H158.503L158.103 34.46H161.803ZM160.003 49.16C159.403 49.16 158.909 48.9867 158.523 48.64C158.149 48.28 157.963 47.84 157.963 47.32C157.963 46.7867 158.149 46.34 158.523 45.98C158.909 45.62 159.403 45.44 160.003 45.44C160.589 45.44 161.069 45.62 161.443 45.98C161.829 46.34 162.023 46.7867 162.023 47.32C162.023 47.84 161.829 48.28 161.443 48.64C161.069 48.9867 160.589 49.16 160.003 49.16ZM169.635 34.46L169.235 44.04H166.335L165.935 34.46H169.635ZM167.835 49.16C167.235 49.16 166.741 48.9867 166.355 48.64C165.981 48.28 165.795 47.84 165.795 47.32C165.795 46.7867 165.981 46.34 166.355 45.98C166.741 45.62 167.235 45.44 167.835 45.44C168.421 45.44 168.901 45.62 169.275 45.98C169.661 46.34 169.855 46.7867 169.855 47.32C169.855 47.84 169.661 48.28 169.275 48.64C168.901 48.9867 168.421 49.16 167.835 49.16ZM177.467 34.46L177.067 44.04H174.167L173.767 34.46H177.467ZM175.667 49.16C175.067 49.16 174.573 48.9867 174.187 48.64C173.813 48.28 173.627 47.84 173.627 47.32C173.627 46.7867 173.813 46.34 174.187 45.98C174.573 45.62 175.067 45.44 175.667 45.44C176.253 45.44 176.733 45.62 177.107 45.98C177.493 46.34 177.687 46.7867 177.687 47.32C177.687 47.84 177.493 48.28 177.107 48.64C176.733 48.9867 176.253 49.16 175.667 49.16Z" fill="#F7FAFF"/>
</svg>
