<svg width="24" height="24" viewBox="0 0 24 24" fill="none" xmlns="http://www.w3.org/2000/svg">
<g clip-path="url(#clip0_1227_564)">
<path d="M23.7725 22.6943L17.5761 16.5969C19.1987 14.834 20.1958 12.5024 20.1958 9.93682C20.195 4.44852 15.6744 0 10.0976 0C4.52079 0 0.000236511 4.44852 0.000236511 9.93682C0.000236511 15.4251 4.52079 19.8736 10.0976 19.8736C12.5072 19.8736 14.7172 19.0402 16.4531 17.6546L22.6736 23.776C22.9766 24.0746 23.4687 24.0746 23.7718 23.776C24.0756 23.4775 24.0756 22.9929 23.7725 22.6943ZM10.0976 18.3448C5.37901 18.3448 1.55386 14.5804 1.55386 9.93682C1.55386 5.29321 5.37901 1.52884 10.0976 1.52884C14.8162 1.52884 18.6413 5.29321 18.6413 9.93682C18.6413 14.5804 14.8162 18.3448 10.0976 18.3448Z" fill="#373C50"/>
</g>
<defs>
<clipPath id="clip0_1227_564">
<rect width="24" height="24" fill="white"/>
</clipPath>
</defs>
</svg>
