<svg width="56" height="56" viewBox="0 0 56 56" fill="none" xmlns="http://www.w3.org/2000/svg">
<rect width="56" height="56" rx="28" fill="#42CE8F" fill-opacity="0.15"/>
<path d="M33.6373 23.919H31.5903C31.1763 23.919 30.8403 24.2545 30.8403 24.669C30.8403 25.0835 31.1763 25.419 31.5903 25.419H33.6378C34.0513 25.419 34.3878 25.7555 34.3878 26.169V35.977C34.3878 36.3905 34.0513 36.727 33.6378 36.727H22.3633C21.9498 36.727 21.6133 36.3905 21.6133 35.977V26.169C21.6133 25.7555 21.9498 25.419 22.3633 25.419H24.4108C24.8253 25.419 25.1608 25.0835 25.1608 24.669C25.1608 24.2545 24.8253 23.919 24.4108 23.919H22.3633C21.1228 23.919 20.1133 24.9285 20.1133 26.169V35.977C20.1133 37.2175 21.1228 38.227 22.3633 38.227H33.6378C34.8783 38.227 35.8878 37.2175 35.8878 35.977V26.169C35.8873 24.928 34.8783 23.919 33.6373 23.919ZM25.2038 22.405L27.2753 20.3335V30.2075C27.2753 30.6215 27.6108 30.9575 28.0253 30.9575C28.4398 30.9575 28.7753 30.6215 28.7753 30.2075V20.3335L30.8468 22.405C30.9933 22.5515 31.1853 22.6245 31.3773 22.6245C31.5693 22.6245 31.7613 22.5515 31.9078 22.405C32.2008 22.1125 32.2008 21.637 31.9078 21.3445L28.5563 17.9925C28.2628 17.6995 27.7883 17.6995 27.4953 17.9925L24.1433 21.3445C23.8503 21.637 23.8503 22.1125 24.1433 22.405C24.4363 22.698 24.9108 22.698 25.2038 22.405Z" fill="#373C50"/>
</svg>
