<svg width="41" height="40" viewBox="0 0 41 40" fill="none" xmlns="http://www.w3.org/2000/svg">
<path d="M20.5 32.1562C15.6641 32.1562 11.4922 31.6562 8.4375 30.7031C5.34375 29.75 3.71094 28.4219 3.71094 26.875V12.9453C3.71094 12.7344 3.88281 12.5625 4.09375 12.5625C4.30469 12.5625 4.47656 12.7344 4.47656 12.9453V26.875C4.47656 29.0625 10.0937 31.3906 20.5 31.3906C30.9141 31.3906 36.5234 29.0625 36.5234 26.875V12.9453C36.5234 12.7344 36.6953 12.5625 36.9062 12.5625C37.1172 12.5625 37.2891 12.7344 37.2891 12.9453V26.875C37.2891 28.4219 35.6562 29.7422 32.5625 30.7031C29.5 31.6562 25.3281 32.1562 20.5 32.1562Z" fill="#373C50"/>
<path d="M20.5 18.8047C17.5391 18.8047 14.6328 18.5391 12.1016 18.0391C12.0938 18.0391 12.0938 18.0391 12.0859 18.0313C9.63281 17.5469 7.57812 16.8594 6.125 16.0234C4.53906 15.1172 3.70312 14.0469 3.70312 12.9297C3.70312 11.8125 4.53906 10.75 6.125 9.84375C7.57031 9.01563 9.63281 8.32032 12.0859 7.83594C12.1953 7.8125 12.3125 7.84375 12.4062 7.91407C12.5 7.98438 12.5469 8.09375 12.5469 8.21094V17.3438C14.9609 17.7969 17.7031 18.0313 20.5 18.0313C23.2969 18.0313 26.0391 17.7969 28.4531 17.3438V8.23438C28.4531 8.125 28.5078 8.01563 28.5938 7.9375C28.6875 7.86719 28.7969 7.83594 28.9141 7.85938C31.3672 8.34375 33.4297 9.03125 34.875 9.86719C36.4609 10.7734 37.2969 11.8438 37.2969 12.9531C37.2969 14.0703 36.4609 15.1328 34.875 16.0391C33.4297 16.8672 31.3672 17.5625 28.9141 18.0469C28.9062 18.0469 28.9062 18.0469 28.8984 18.0547C26.3672 18.5469 23.4609 18.8047 20.5 18.8047ZM29.2109 8.70313V17.1953C33.6719 16.2422 36.5234 14.5938 36.5234 12.9453C36.5234 11.3047 33.6641 9.65625 29.2109 8.70313ZM11.7812 8.70313C7.32812 9.65625 4.46875 11.2969 4.46875 12.9453C4.46875 14.6016 7.32031 16.25 11.7812 17.2031V8.70313Z" fill="#373C50"/>
<path d="M20.5004 15.8906C20.3285 15.8906 20.1489 15.8594 19.977 15.8047C19.1098 15.5156 18.641 14.5781 18.9301 13.711C19.0707 13.2891 19.3676 12.9531 19.7582 12.7578C20.1567 12.5625 20.602 12.5235 21.0239 12.6641C21.891 12.9531 22.3598 13.8906 22.0707 14.7578C21.8442 15.4531 21.1957 15.8906 20.5004 15.8906ZM19.6567 13.9531C19.5004 14.4219 19.7504 14.9219 20.2192 15.086C20.6879 15.2422 21.1879 14.9922 21.352 14.5235C21.516 14.0547 21.2582 13.5547 20.7895 13.3906C20.5629 13.3203 20.3207 13.336 20.102 13.4453C19.8832 13.5391 19.727 13.7266 19.6567 13.9531Z" fill="#373C50"/>
<path d="M16.2422 15.8828C15.3281 15.8828 14.5859 15.1406 14.5859 14.2266C14.5859 14.0156 14.7578 13.8437 14.9687 13.8437C15.1797 13.8437 15.3516 14.0156 15.3516 14.2266C15.3516 14.7188 15.75 15.1172 16.2422 15.1172C16.7344 15.1172 17.1328 14.7188 17.1328 14.2266C17.1328 13.7344 16.7344 13.3359 16.2422 13.3359C16.0312 13.3359 15.8594 13.1641 15.8594 12.9531C15.8594 12.7422 16.0312 12.5703 16.2422 12.5703C16.7344 12.5703 17.1328 12.1719 17.1328 11.6797C17.1328 11.1875 16.7344 10.7891 16.2422 10.7891C15.75 10.7891 15.3516 11.1875 15.3516 11.6797C15.3516 11.8906 15.1797 12.0625 14.9687 12.0625C14.7578 12.0625 14.5859 11.8906 14.5859 11.6797C14.5859 10.7656 15.3281 10.0234 16.2422 10.0234C17.1562 10.0234 17.8984 10.7734 17.8984 11.6875C17.8984 12.2031 17.6641 12.6562 17.2969 12.9609C17.6641 13.2656 17.8984 13.7266 17.8984 14.2344C17.8984 15.1484 17.1484 15.8828 16.2422 15.8828Z" fill="#373C50"/>
<path d="M19.2266 14.6172C19.0156 14.6172 18.8516 14.4453 18.8516 14.2422C18.8516 14.1406 18.8438 11.7109 20.8516 10.2265C21.0234 10.1015 21.2578 10.1328 21.3828 10.3047C21.5078 10.4765 21.4766 10.7109 21.3047 10.8359C19.6172 12.0859 19.6172 14.2109 19.6172 14.2344C19.6016 14.4453 19.4375 14.6172 19.2266 14.6172Z" fill="#373C50"/>
<path d="M24.75 15.8906C23.8359 15.8906 23.0859 15.1406 23.0859 14.2266V11.6719C23.0859 10.7578 23.8359 10.0078 24.75 10.0078C25.6641 10.0078 26.4141 10.7578 26.4141 11.6719V14.2266C26.4063 15.1484 25.6641 15.8906 24.75 15.8906ZM24.75 10.7734C24.2656 10.7734 23.8516 11.1875 23.8516 11.6719V14.2266C23.8516 14.7109 24.2656 15.125 24.75 15.125C25.25 15.125 25.6484 14.7266 25.6484 14.2266V11.6719C25.6484 11.1875 25.2344 10.7734 24.75 10.7734Z" fill="#373C50"/>
<path d="M26.8906 9.96092C26.8672 9.96092 26.8359 9.96092 26.8203 9.95311C26.7969 9.9453 26.7656 9.9453 26.75 9.92967C26.7266 9.92186 26.7031 9.90623 26.6797 9.89842C26.6563 9.8828 26.6406 9.86717 26.625 9.85155C26.6094 9.83592 26.5937 9.81248 26.5781 9.79686C26.5703 9.77342 26.5547 9.74998 26.5469 9.72655C26.5391 9.70311 26.5313 9.67967 26.5234 9.65623C26.5156 9.6328 26.5156 9.60155 26.5156 9.58592C26.5156 9.56248 26.5156 9.53123 26.5234 9.51561C26.5313 9.49217 26.5312 9.46092 26.5469 9.4453C26.5547 9.42186 26.5703 9.39842 26.5781 9.37498C26.5859 9.35155 26.6094 9.33592 26.625 9.3203C26.6406 9.30467 26.6641 9.28905 26.6797 9.27342C26.7031 9.26561 26.7266 9.24998 26.75 9.24217C26.7734 9.23436 26.7969 9.22655 26.8203 9.21873C26.9453 9.1953 27.0781 9.23436 27.1641 9.3203C27.1797 9.33592 27.1953 9.35936 27.2188 9.37498C27.2266 9.39842 27.2422 9.42186 27.25 9.4453C27.2578 9.46873 27.2656 9.49217 27.2734 9.51561C27.2813 9.53905 27.2812 9.5703 27.2812 9.58592C27.2812 9.60936 27.2813 9.64061 27.2734 9.65623C27.2656 9.67967 27.2656 9.71092 27.25 9.72655C27.2422 9.74998 27.2266 9.77342 27.2188 9.79686C27.2031 9.8203 27.1875 9.83592 27.1641 9.85155C27.0859 9.92186 26.9922 9.96092 26.8906 9.96092Z" fill="#373C50"/>
<path d="M20.4999 25.6797C16.2968 25.6797 12.539 25.1562 9.63273 24.1797C9.43741 24.1093 9.32804 23.8984 9.39835 23.6953C9.46866 23.5 9.6796 23.3906 9.88273 23.4609C12.7109 24.414 16.3827 24.9218 20.5077 24.9218C24.6171 24.9218 28.289 24.414 31.1327 23.4531C31.328 23.3828 31.5546 23.4922 31.6171 23.6875C31.6874 23.8828 31.578 24.1093 31.3827 24.1718C28.4452 25.1562 24.6874 25.6797 20.4999 25.6797Z" fill="#373C50"/>
<path d="M10.7268 26.1484C10.5861 26.1484 10.4533 26.0703 10.3908 25.9375L9.41426 23.9922C9.36738 23.8984 9.35957 23.7969 9.39082 23.6953C9.42207 23.6016 9.49238 23.5234 9.58613 23.4766L11.5393 22.5078C11.7268 22.4141 11.9611 22.4922 12.0471 22.6797C12.1408 22.8672 12.0627 23.1016 11.8752 23.1875L10.2658 23.9844L11.0705 25.5859C11.1643 25.7734 11.0861 26.0078 10.8986 26.1016C10.8439 26.125 10.7893 26.1484 10.7268 26.1484Z" fill="#373C50"/>
<path d="M30.2653 26.1484C30.2106 26.1484 30.1481 26.1406 30.0934 26.1094C29.9059 26.0156 29.8278 25.7891 29.9216 25.5937L30.7262 23.9922L29.1169 23.1953C28.9294 23.1016 28.8512 22.875 28.945 22.6875C29.0387 22.5 29.2653 22.4219 29.4528 22.5156L31.4059 23.4844C31.4997 23.5312 31.5622 23.6094 31.6012 23.7031C31.6325 23.7969 31.6247 23.9062 31.5778 24L30.6012 25.9375C30.5387 26.0625 30.4059 26.1484 30.2653 26.1484Z" fill="#373C50"/>
</svg>
